 <svg display="none" xmlns="http://www.w3.org/2000/svg">
  <symbol id="sex" viewBox="0 0 256 209">
    <g>
      <path d="M65.9,26.7c0-13.6,11-24.6,24.6-24.6s24.6,11,24.6,24.6s-11,24.6-24.6,24.6S65.9,40.3,65.9,26.7z M254,191.2
	c0,8.7-7.1,15.8-15.8,15.8h-78.8c-8.7,0-15.8-7.1-15.8-15.8v-27.5H74.8v30.4c0,7.1-5.7,12.8-12.8,12.8H14.8
	c-7.1,0-12.8-5.7-12.8-12.8s5.7-12.8,12.8-12.8h34.5c0,0,0.1-36.7,0.1-37.3c-0.4-7.9,5.2-14.9,13.1-16.3l45.9-7.7c0,0,0-59.2,0-59.2
	c0-11.7,9.5-21.3,21.3-21.3c3.7,0,7.2,0.9,10.2,2.6c8.4,4.5,41.9,29.7,61.1,44c8.8,6.6,13.9,16.9,13.9,27.8l0.1,61.4h23.3
	C246.9,175.4,254,182.5,254,191.2z M183.5,175.4l-0.2-36c0-10.4-4.8-20.1-13-26.5L134,84.7v31.1l10.9-1.8c0,0,0.1,0,0.1,0
	c7.5-1.2,15.2,0.9,21,5.8c5.8,4.9,9.2,12.1,9.3,19.7c0,0.1,0,0.1,0,0.2v35.7h7.9H183.5z M16.5,140.3c12.4,5.6,26.3-0.3,32.6-12.3
	c8-15.5,4.5-33.1-2.4-42.9c0,0,0,0,0,0c-4.8,5.8-12.2,7.6-19.6,8.1C15.3,94,8.4,98.4,4.2,107.7C-1.4,120.1,4.1,134.7,16.5,140.3z"/>
    </g>
  </symbol>
  <symbol id="pinterest" viewBox="0 0 1920 1920">
    <g>
       <path d="M1368.619 1166.432c-90.774 96.64-206.614 142.4-334.614 132.8-95.573-7.253-220.053-73.707-221.333-74.347l-63.787-34.24-13.76 71.04c-37.653 193.6-82.346 334.827-181.653 439.787-11.627-214.613 38.933-400.213 88-580.48 20.587-75.52 41.813-153.707 58.027-232.213l4.16-20.374-10.774-17.813c-50.88-84.267-35.946-233.6 31.254-313.387 25.28-30.186 53.44-45.12 85.226-45.12 14.614 0 29.974 3.2 46.187 9.494 68.587 26.773 62.187 92.8 9.813 265.173-34.88 114.773-70.933 233.387-18.986 320.213 27.093 45.227 74.133 74.774 139.946 87.787 146.56 28.693 276.054-39.573 355.307-188.16 98.987-185.387 101.973-486.827-51.307-640.107-168.32-168.106-443.733-199.04-670.08-75.306-201.706 110.293-298.56 308.586-252.906 517.44 20.16 91.946-16.64 136.533-41.28 155.306-58.56-45.973-62.187-170.24-58.347-277.013 11.84-321.6 295.253-525.76 556.16-554.453 320.427-35.414 669.12 103.253 715.627 436.586 32.106 230.294-34.88 472.64-170.88 617.387m276.48-632.107C1595.712 180.62 1245.312-41.14 812.139 6.432c-305.174 33.6-637.014 275.2-650.987 656.64-5.973 162.027 6.613 335.253 144.96 391.467l19.52 7.893 19.52-7.467c60.587-23.146 164.907-113.386 126.4-289.173-35.733-163.2 39.04-313.067 199.893-401.067 151.36-82.773 386.027-100.053 543.467 57.28 106.667 106.667 121.92 346.987 32.64 514.347-39.893 74.773-113.813 158.72-240.533 133.76-52.587-10.453-65.067-31.147-69.12-37.973-27.627-46.187 2.666-146.134 29.546-234.347 44.374-146.133 99.734-328.213-73.066-395.627-94.08-36.586-185.707-12.373-251.947 66.347-91.307 108.48-112.853 294.4-51.52 417.813-14.72 68.587-33.067 135.787-52.373 206.72-59.414 218.134-120.854 443.734-80.854 723.52l12.48 86.934 71.36-51.094c165.12-118.08 235.627-281.706 284.374-503.253 52.8 22.933 130.133 51.093 200 56.427 162.133 12.16 306.88-45.227 420.48-166.08 157.226-167.467 235.2-444.16 198.72-705.174" fill-rule="evenodd"/>
    </g>
  </symbol>
</svg>